# Mesh Id
o pyramid

# Blender v2.74 (sub 0) OBJ File: ''
# www.blender.org
mtllib pyramid.mtl
o Box
v 0.263899 -0.687292 1.199281
v 0.281560 -0.664168 -0.744449
v -1.556993 -0.656486 1.169050
v -1.564121 -0.693929 -0.691274
v 0.777232 -0.688215 -0.717856
v 0.783014 -0.665462 1.177256
v -0.643424 1.196732 -0.036835
v -0.644137 1.196419 0.040600
vt 0.000000 1.000000
vt 0.000000 0.000000
vt 1.000000 0.000000
vt 1.000000 1.000000
vn -0.000300 -1.000000 0.003800
vn 0.796600 0.604400 -0.008900
vn -0.002200 -1.000000 -0.000100
vn -0.898300 0.439300 -0.005400
vn -0.001000 0.523600 0.852000
vn -0.011500 0.350400 -0.936500
usemtl b0b0b0
s 1
f 1/1/1 3/2/1 4/3/1 2/4/1
f 5/1/2 7/2/2 8/3/2 6/4/2
f 5/1/3 6/2/3 1/3/3 2/4/3
f 8/1/4 7/2/4 4/3/4 3/4/4
f 6/1/5 8/2/5 3/3/5 1/4/5
f 2/1/6 4/2/6 7/3/6 5/4/6
